<?xml version="1.0" standalone="no"?>
<!DOCTYPE svg PUBLIC "-//W3C//DTD SVG 20010904//EN"
 "http://www.w3.org/TR/2001/REC-SVG-20010904/DTD/svg10.dtd">
<svg version="1.0" xmlns="http://www.w3.org/2000/svg"
 width="31.000000pt" height="43.000000pt" viewBox="0 0 31.000000 43.000000"
 preserveAspectRatio="xMidYMid meet">
<metadata>
Created by potrace 1.15, written by Peter Selinger 2001-2017
</metadata>
<g transform="translate(0.000000,43.000000) scale(0.100000,-0.100000)"
fill="#000000" stroke="none">
<path d="M4 417 c-2 -7 -3 -100 -2 -207 l3 -195 153 -3 152 -3 0 91 0 90 -40
0 c-39 0 -40 0 -28 28 7 15 19 33 27 40 14 11 12 16 -14 38 -17 14 -24 23 -17
19 7 -4 12 0 12 9 0 10 -8 15 -22 13 -14 -1 -22 3 -21 10 2 8 -4 10 -14 6 -12
-5 -14 -3 -8 8 8 12 6 12 -9 0 -15 -13 -19 -13 -27 0 -7 12 -9 12 -9 -1 0 -13
-2 -13 -9 -1 -7 11 -10 10 -13 -5 -2 -11 -12 -19 -22 -19 -14 0 -20 -8 -20
-28 -1 -16 -8 -32 -16 -37 -10 -7 -11 -10 -2 -10 6 0 12 -7 12 -15 0 -8 -6
-15 -12 -16 -7 0 -4 -4 7 -9 14 -6 15 -9 5 -10 -10 -1 -9 -4 5 -10 15 -7 10
-9 -22 -9 l-43 -1 0 115 0 114 153 4 152 3 -153 2 c-116 1 -154 -1 -158 -11z"/>
</g>
</svg>
